<svg xmlns="http://www.w3.org/2000/svg" width="64" height="64" fill="none" viewBox="0 0 64 64"><mask id="mask0_11182_21347" style="mask-type:luminance" width="64" height="64" x="0" y="0" maskUnits="userSpaceOnUse"><path fill="#fff" d="M64 0H0V64H64V0Z"/><path fill="#fff" d="M64 0H0V64H64V0Z"/></mask><g mask="url(#mask0_11182_21347)"><path stroke="#272A2E" stroke-miterlimit="10" d="M-1.71094 -1.70996L67.0191 67.02"/><path stroke="#272A2E" stroke-miterlimit="10" d="M-1.71094 -9.70996L67.0191 59.02"/><path stroke="#272A2E" stroke-miterlimit="10" d="M-1.71094 -17.71L67.0191 51.02"/><path stroke="#272A2E" stroke-miterlimit="10" d="M-1.71094 -25.71L67.0191 43.02"/><path stroke="#272A2E" stroke-miterlimit="10" d="M-1.71094 -33.71L67.0191 35.02"/><path stroke="#272A2E" stroke-miterlimit="10" d="M-1.71094 -41.71L67.0191 27.02"/><path stroke="#272A2E" stroke-miterlimit="10" d="M-1.71094 -49.71L67.0191 19.02"/><path stroke="#272A2E" stroke-miterlimit="10" d="M-1.71094 -57.71L67.0191 11.02"/><path stroke="#272A2E" stroke-miterlimit="10" d="M-1.71094 6.29004L67.0191 75.02"/><path stroke="#272A2E" stroke-miterlimit="10" d="M-1.71094 14.29L67.0191 83.02"/><path stroke="#272A2E" stroke-miterlimit="10" d="M-1.71094 22.29L67.0191 91.02"/><path stroke="#272A2E" stroke-miterlimit="10" d="M-1.71094 30.29L67.0191 99.02"/><path stroke="#272A2E" stroke-miterlimit="10" d="M-1.71094 38.29L67.0191 107.02"/><path stroke="#272A2E" stroke-miterlimit="10" d="M-1.71094 46.29L67.0191 115.02"/><path stroke="#272A2E" stroke-miterlimit="10" d="M-1.71094 54.29L67.0191 123.02"/></g></svg>