<svg xmlns="http://www.w3.org/2000/svg" width="16" fill="none" viewBox="0 0 16 16"><g clip-path="url(#clip0_1_4)"><path fill="url(#paint0_linear_1_4)" d="M9.02054 15.6154C8.61566 16.1253 7.79471 15.8459 7.78496 15.1949L7.6423 5.6726H14.0451C15.2048 5.6726 15.8516 7.01208 15.1305 7.92034L9.02054 15.6154Z"/><path fill="url(#paint1_linear_1_4)" fill-opacity=".2" d="M9.02054 15.6154C8.61566 16.1253 7.79471 15.8459 7.78496 15.1949L7.6423 5.6726H14.0451C15.2048 5.6726 15.8516 7.01208 15.1305 7.92034L9.02054 15.6154Z"/><path fill="#3ECF8E" d="M6.41657 0.293245C6.82145 -0.216688 7.64241 0.0627185 7.65217 0.713772L7.71468 10.2361H1.39202C0.232269 10.2361 -0.414546 8.89658 0.306622 7.98832L6.41657 0.293245Z"/></g><defs><linearGradient id="paint0_linear_1_4" x1="7.642" x2="13.333" y1="7.784" y2="10.171" gradientUnits="userSpaceOnUse"><stop stop-color="#249361"/><stop offset="1" stop-color="#3ECF8E"/></linearGradient><linearGradient id="paint1_linear_1_4" x1="5.119" x2="7.715" y1="4.33" y2="9.215" gradientUnits="userSpaceOnUse"><stop/><stop offset="1" stop-opacity="0"/></linearGradient><clipPath id="clip0_1_4"><rect width="15.434" height="16" fill="#fff"/></clipPath></defs></svg>