<svg xmlns="http://www.w3.org/2000/svg" width="32" height="32" fill="none" viewBox="0 0 32 32"><rect width="29.92" height="29.92" x="1.03" y="1.04" fill="url(#paint0_radial_286_45899)" rx="6"/><rect width="29.92" height="29.92" x="1.03" y="1.04" fill="url(#paint1_radial_286_45899)" fill-opacity=".16" rx="6"/><rect width="29.42" height="29.42" x="1.28" y="1.29" stroke="url(#paint2_linear_286_45899)" stroke-opacity=".08" stroke-width=".5" rx="5.75"/><path fill="url(#paint3_radial_286_45899)" fill-rule="evenodd" d="M6.65625 8.78125C6.65625 7.60764 7.60764 6.65625 8.78125 6.65625H10.8438C11.9964 6.65625 12.9348 7.57405 12.9678 8.71875H19.0322C19.0652 7.57405 20.0036 6.65625 21.1562 6.65625H23.2188C24.3924 6.65625 25.3438 7.60764 25.3438 8.78125V10.8438C25.3438 11.9964 24.4259 12.9348 23.2812 12.9678V19.0322C24.4259 19.0652 25.3438 20.0036 25.3438 21.1562V23.2188C25.3438 24.3924 24.3924 25.3438 23.2188 25.3438H21.1562C20.0036 25.3438 19.0652 24.4259 19.0322 23.2812H12.9678C12.9348 24.4259 11.9964 25.3438 10.8438 25.3438H8.78125C7.60764 25.3438 6.65625 24.3924 6.65625 23.2188V21.1562C6.65625 20.0036 7.57405 19.0652 8.71875 19.0322V12.9678C7.57405 12.9348 6.65625 11.9964 6.65625 10.8438V8.78125ZM10.2188 12.9688V19.0312H10.8438C12.0174 19.0312 12.9688 19.9826 12.9688 21.1562V21.7812H19.0312V21.1562C19.0312 19.9826 19.9826 19.0312 21.1562 19.0312H21.7812V12.9688H21.1562C19.9826 12.9688 19.0312 12.0174 19.0312 10.8438V10.2188H12.9688V10.8438C12.9688 12.0174 12.0174 12.9688 10.8438 12.9688H10.2188ZM11.4688 9.46875V10.8438C11.4688 11.1889 11.1889 11.4688 10.8438 11.4688H9.46875H8.78125C8.43607 11.4688 8.15625 11.1889 8.15625 10.8438V8.78125C8.15625 8.43607 8.43607 8.15625 8.78125 8.15625H10.8438C11.1889 8.15625 11.4688 8.43607 11.4688 8.78125V9.46875ZM20.5312 9.46875V10.8438C20.5312 11.1889 20.8111 11.4688 21.1562 11.4688H22.5312H23.2188C23.5639 11.4688 23.8438 11.1889 23.8438 10.8438V8.78125C23.8438 8.43607 23.5639 8.15625 23.2188 8.15625H21.1562C20.8111 8.15625 20.5312 8.43607 20.5312 8.78125V9.46875ZM22.5312 20.5312H21.1562C20.8111 20.5312 20.5312 20.8111 20.5312 21.1562V22.5312V23.2188C20.5312 23.5639 20.8111 23.8438 21.1562 23.8438H23.2188C23.5639 23.8438 23.8438 23.5639 23.8438 23.2188V21.1562C23.8438 20.8111 23.5639 20.5312 23.2188 20.5312H22.5312ZM11.4688 22.5312V21.1562C11.4688 20.8111 11.1889 20.5312 10.8438 20.5312H9.46875H8.78125C8.43607 20.5312 8.15625 20.8111 8.15625 21.1562V23.2188C8.15625 23.5639 8.43607 23.8438 8.78125 23.8438H10.8438C11.1889 23.8438 11.4688 23.5639 11.4688 23.2188V22.5312Z" clip-rule="evenodd"/><defs><radialGradient id="paint0_radial_286_45899" cx="0" cy="0" r="1" gradientTransform="translate(16.6003 1.04001) rotate(91.1683) scale(29.9265 29.9265)" gradientUnits="userSpaceOnUse"><stop stop-color="#1F1D20"/><stop offset="1" stop-color="#0E0315"/></radialGradient><radialGradient id="paint1_radial_286_45899" cx="0" cy="0" r="1" gradientTransform="translate(18.9805 -2.98714) rotate(99.0799) scale(34.3788 34.6639)" gradientUnits="userSpaceOnUse"><stop offset=".15" stop-color="#0080FF"/><stop offset="1" stop-color="#75BAFF" stop-opacity="0"/></radialGradient><linearGradient id="paint2_linear_286_45899" x1="15.99" x2="15.99" y1="1.04" y2="30.96" gradientUnits="userSpaceOnUse"><stop stop-color="#fff"/><stop offset="1" stop-color="#fff" stop-opacity=".15"/></linearGradient><radialGradient id="paint3_radial_286_45899" cx="0" cy="0" r="1" gradientTransform="translate(17.8678 4.14096) rotate(99.0799) scale(21.4724 21.6504)" gradientUnits="userSpaceOnUse"><stop offset=".51" stop-color="#06C"/><stop offset="1" stop-color="#75D1FF"/></radialGradient></defs></svg>